<svg width="24" height="24" viewBox="0 0 24 24" fill="none" xmlns="http://www.w3.org/2000/svg">
<mask id="path-1-inside-1_10_1819" fill="white">
<path d="M17.8984 2H6.10156C3.83996 2 2 3.83996 2 6.10156V17.8984C2 20.16 3.83996 22 6.10156 22H17.8984C20.16 22 22 20.16 22 17.8984V6.10156C22 3.83996 20.16 2 17.8984 2ZM20.8281 17.8984C20.8281 19.5139 19.5139 20.8281 17.8984 20.8281H6.10156C4.48613 20.8281 3.17188 19.5139 3.17188 17.8984V6.10156C3.17188 4.48613 4.48613 3.17188 6.10156 3.17188H17.8984C19.5139 3.17188 20.8281 4.48613 20.8281 6.10156V17.8984Z"/>
</mask>
<path d="M17.8984 2H6.10156C3.83996 2 2 3.83996 2 6.10156V17.8984C2 20.16 3.83996 22 6.10156 22H17.8984C20.16 22 22 20.16 22 17.8984V6.10156C22 3.83996 20.16 2 17.8984 2ZM20.8281 17.8984C20.8281 19.5139 19.5139 20.8281 17.8984 20.8281H6.10156C4.48613 20.8281 3.17188 19.5139 3.17188 17.8984V6.10156C3.17188 4.48613 4.48613 3.17188 6.10156 3.17188H17.8984C19.5139 3.17188 20.8281 4.48613 20.8281 6.10156V17.8984Z" fill="#222222"/>
<path d="M17.8984 0H6.10156V4H17.8984V0ZM6.10156 0C2.73539 0 0 2.73539 0 6.10156H4C4 4.94453 4.94453 4 6.10156 4V0ZM0 6.10156V17.8984H4V6.10156H0ZM0 17.8984C0 21.2646 2.73539 24 6.10156 24V20C4.94453 20 4 19.0555 4 17.8984H0ZM6.10156 24H17.8984V20H6.10156V24ZM17.8984 24C21.2646 24 24 21.2646 24 17.8984H20C20 19.0555 19.0555 20 17.8984 20V24ZM24 17.8984V6.10156H20V17.8984H24ZM24 6.10156C24 2.73539 21.2646 0 17.8984 0V4C19.0555 4 20 4.94453 20 6.10156H24ZM18.8281 17.8984C18.8281 18.4093 18.4093 18.8281 17.8984 18.8281V22.8281C20.6184 22.8281 22.8281 20.6184 22.8281 17.8984H18.8281ZM17.8984 18.8281H6.10156V22.8281H17.8984V18.8281ZM6.10156 18.8281C5.5907 18.8281 5.17188 18.4093 5.17188 17.8984H1.17188C1.17188 20.6184 3.38156 22.8281 6.10156 22.8281V18.8281ZM5.17188 17.8984V6.10156H1.17188V17.8984H5.17188ZM5.17188 6.10156C5.17188 5.5907 5.5907 5.17188 6.10156 5.17188V1.17188C3.38156 1.17188 1.17188 3.38156 1.17188 6.10156H5.17188ZM6.10156 5.17188H17.8984V1.17188H6.10156V5.17188ZM17.8984 5.17188C18.4093 5.17188 18.8281 5.5907 18.8281 6.10156H22.8281C22.8281 3.38156 20.6184 1.17188 17.8984 1.17188V5.17188ZM18.8281 6.10156V17.8984H22.8281V6.10156H18.8281Z" fill="#222222" mask="url(#path-1-inside-1_10_1819)"/>
<path d="M13.9393 6.82567C13.8718 6.57371 13.7102 6.36309 13.4843 6.2327C13.018 5.96348 12.4196 6.12375 12.1503 6.59016L12 6.85047L11.8497 6.59012C11.5804 6.12383 10.982 5.96348 10.5157 6.23266C10.0494 6.50192 9.88902 7.10031 10.1582 7.56668L10.8723 8.80356L8.23742 13.3674H6.31641C5.77793 13.3674 5.33984 13.8055 5.33984 14.344C5.33984 14.8825 5.77793 15.3205 6.31641 15.3205H13.7328L12.6052 13.3674H10.4927L13.8417 7.56672C13.9721 7.34082 14.0068 7.07762 13.9393 6.82567Z" fill="#222222"/>
<path d="M17.6832 13.3671H15.7622L13.5783 9.58447L12.4507 11.5376L15.8415 17.4106C15.9719 17.6365 16.1824 17.7981 16.4345 17.8656C16.5186 17.8882 16.604 17.8994 16.6888 17.8994C16.858 17.8994 17.0251 17.855 17.1756 17.7681C17.6419 17.4988 17.8022 16.9004 17.5329 16.4341L16.8898 15.3202H17.6832C18.2217 15.3202 18.6597 14.8821 18.6597 14.3436C18.6597 13.8051 18.2217 13.3671 17.6832 13.3671Z" fill="#222222"/>
<path d="M6.65864 16.1016L6.46657 16.4342C6.19735 16.9005 6.3577 17.499 6.82403 17.7682C6.97743 17.8568 7.14508 17.8989 7.31067 17.8988C7.6484 17.8988 7.97735 17.7237 8.15805 17.4107L8.91391 16.1016H6.65864Z" fill="#222222"/>
</svg>
