<svg width="24" height="24" viewBox="0 0 24 24" fill="none" xmlns="http://www.w3.org/2000/svg">
<path fill-rule="evenodd" clip-rule="evenodd" d="M4.45121 15.8398C4.9814 15.8398 5.41121 16.2696 5.41121 16.7998V18.7198C5.41121 18.9744 5.51234 19.2186 5.6924 19.3987C5.87242 19.5787 6.11659 19.6798 6.37121 19.6798H17.8912C18.1458 19.6798 18.3899 19.5788 18.57 19.3987C18.7501 19.2186 18.8512 18.9744 18.8512 18.7198V16.7998C18.8512 16.2696 19.281 15.8398 19.8112 15.8398C20.3414 15.8398 20.7712 16.2696 20.7712 16.7998V18.7198C20.7712 19.4836 20.4678 20.2162 19.9276 20.7563C19.3875 21.2964 18.655 21.5998 17.8912 21.5998H6.37121C5.60741 21.5998 4.87484 21.2965 4.33472 20.7563C3.79465 20.2162 3.49121 19.4836 3.49121 18.7198V16.7998C3.49121 16.2696 3.92101 15.8398 4.45121 15.8398Z" fill="#222222"/>
<path fill-rule="evenodd" clip-rule="evenodd" d="M6.65227 10.3613C7.02718 9.98635 7.63501 9.98635 8.00992 10.3613L12.1311 14.4824L16.2523 10.3613C16.6271 9.98635 17.235 9.98635 17.6099 10.3613C17.9849 10.7361 17.9849 11.344 17.6099 11.7189L12.8099 16.5189C12.435 16.8938 11.8271 16.8938 11.4523 16.5189L6.65227 11.7189C6.27737 11.344 6.27737 10.7361 6.65227 10.3613Z" fill="#222222"/>
<path fill-rule="evenodd" clip-rule="evenodd" d="M12.1314 3.35986C12.6616 3.35986 13.0914 3.78967 13.0914 4.31986V15.8399C13.0914 16.3701 12.6616 16.7999 12.1314 16.7999C11.6012 16.7999 11.1714 16.3701 11.1714 15.8399V4.31986C11.1714 3.78967 11.6012 3.35986 12.1314 3.35986Z" fill="#222222"/>
</svg>
