<svg width="24" height="24" viewBox="0 0 24 24" fill="none" xmlns="http://www.w3.org/2000/svg">
<path d="M20.2422 4.96875H3.75781C2.79055 4.96875 2 5.75582 2 6.72656V17.2734C2 18.2445 2.79105 19.0312 3.75781 19.0312H20.2422C21.2095 19.0312 22 18.2442 22 17.2734V6.72656C22 5.75559 21.2091 4.96875 20.2422 4.96875ZM19.9723 6.14062C19.4039 6.71082 12.7283 13.4082 12.4541 13.6834C12.225 13.9131 11.7751 13.9133 11.5459 13.6834L4.02773 6.14062H19.9723ZM3.17188 17.058V6.94199L8.21348 12L3.17188 17.058ZM4.02773 17.8594L9.04078 12.83L10.716 14.5107C11.4025 15.1994 12.5978 15.1991 13.2841 14.5107L14.9593 12.83L19.9723 17.8594H4.02773ZM20.8281 17.058L15.7865 12L20.8281 6.94199V17.058Z" fill="#222222"/>
</svg>
