<svg width="24" height="24" viewBox="0 0 24 24" fill="none" xmlns="http://www.w3.org/2000/svg">
<path d="M17 12C15.5002 12 14.1583 12.6632 13.242 13.709L10.0683 11.7557C10.2308 11.3097 10.3335 10.8352 10.3335 10.3332C10.3335 10.0047 10.2865 9.6897 10.2147 9.38271L14.4335 7.43599C15.0445 8.18149 15.9607 8.6665 17.0002 8.6665C18.8402 8.6665 20.3335 7.17402 20.3335 5.33325C20.3335 3.49248 18.84 2 17 2C15.1585 2 13.6667 3.49248 13.6667 5.33325C13.6667 5.53652 13.692 5.73374 13.726 5.92573L9.51221 7.87075C8.75298 6.84224 7.54272 6.16675 6.1667 6.16675C3.86523 6.16675 2 8.03174 2 10.3333C2 12.6348 3.86523 14.5 6.16675 14.5C7.3645 14.5 8.43726 13.9873 9.19727 13.1768L12.3663 15.1268C12.1317 15.706 12 16.3368 12 17C12 19.762 14.238 22 17 22C19.7605 22 22 19.762 22 17C22 14.238 19.7605 12 17 12ZM17 3.66675C17.9188 3.66675 18.6667 4.41377 18.6667 5.3335C18.6667 6.25298 17.9188 7 17 7C16.0813 7 15.3333 6.25298 15.3333 5.33325C15.3333 4.41377 16.0813 3.66675 17 3.66675ZM6.16675 12.8333C4.78799 12.8333 3.66675 11.712 3.66675 10.3333C3.66675 8.95474 4.78799 7.83325 6.16675 7.83325C7.54526 7.83325 8.66675 8.95474 8.66675 10.3333C8.66675 11.712 7.54526 12.8333 6.16675 12.8333ZM17 20.3333C15.1615 20.3333 13.6667 18.8385 13.6667 17C13.6667 15.1615 15.1615 13.6667 17 13.6667C18.8385 13.6667 20.3333 15.1615 20.3333 17C20.3333 18.8385 18.8385 20.3333 17 20.3333Z" fill="#222222"/>
</svg>
