<svg width="24" height="24" viewBox="0 0 24 24" fill="none" xmlns="http://www.w3.org/2000/svg">
<path fill-rule="evenodd" clip-rule="evenodd" d="M13.434 2.65324C12.554 2.11624 11.446 2.11624 10.566 2.65324C9.982 3.01024 9.297 3.42924 8.912 3.66424C8.787 3.74124 8.649 3.79524 8.505 3.82424C7.883 3.94824 6.543 4.21624 5.461 4.43224C4.175 4.69024 3.25 5.81824 3.25 7.12924V10.8182C3.25 15.9652 6.753 20.4512 11.746 21.6992C11.912 21.7412 12.087 21.7412 12.253 21.6992C17.246 20.4512 20.75 15.9652 20.75 10.8182C20.75 9.41724 20.75 8.10224 20.75 7.12924C20.75 5.81824 19.825 4.69024 18.539 4.43224C17.457 4.21624 16.117 3.94824 15.495 3.82424C15.351 3.79524 15.213 3.74124 15.088 3.66424C14.703 3.42924 14.018 3.01024 13.434 2.65324ZM12 20.2152C16.267 19.0962 19.25 15.2382 19.25 10.8182C19.25 9.41724 19.25 8.10224 19.25 7.12924C19.25 6.53324 18.829 6.02024 18.245 5.90324C17.163 5.68724 15.823 5.41924 15.201 5.29424C14.884 5.23124 14.582 5.11324 14.306 4.94424C13.921 4.70924 13.235 4.29024 12.652 3.93324C12.252 3.68924 11.748 3.68924 11.348 3.93324C10.765 4.29024 10.079 4.70924 9.694 4.94424C9.418 5.11324 9.116 5.23124 8.799 5.29424C8.177 5.41924 6.837 5.68724 5.755 5.90324C5.171 6.02024 4.75 6.53324 4.75 7.12924V10.8182C4.75 15.2382 7.733 19.0962 12 20.2152Z" fill="#222222"/>
<path fill-rule="evenodd" clip-rule="evenodd" d="M11.0002 12.9392L14.4702 9.47024C14.7622 9.17724 15.2382 9.17724 15.5302 9.47024C15.8232 9.76224 15.8232 10.2382 15.5302 10.5302L11.5302 14.5302C11.2372 14.8232 10.7632 14.8232 10.4702 14.5302L8.97024 13.0302C8.67724 12.7382 8.67724 12.2622 8.97024 11.9702C9.26224 11.6772 9.73824 11.6772 10.0302 11.9702L11.0002 12.9392Z" fill="#222222"/>
</svg>
