<svg width="24" height="24" viewBox="0 0 24 24" fill="none" xmlns="http://www.w3.org/2000/svg">
<path d="M18.4784 7.64171L15.0137 7.13825L13.4643 3.99875C12.8658 2.78605 11.1353 2.78641 10.537 3.99871L8.98754 7.13821L5.52288 7.64171C4.18451 7.83615 3.65027 9.48202 4.61832 10.4257L7.12538 12.8695L6.53356 16.3201C6.30497 17.653 7.70507 18.6697 8.90179 18.0407L12.0007 16.4115L15.0996 18.0407C16.2946 18.6689 17.6964 17.6528 17.4678 16.3201L16.876 12.8695L19.3831 10.4257C20.3513 9.48165 19.8162 7.83611 18.4784 7.64171ZM18.4064 9.4239L15.636 12.1243C15.4712 12.2851 15.3959 12.5166 15.4348 12.7435L16.0888 16.5566C16.1217 16.7481 15.9224 16.8927 15.7505 16.8024L12.3261 15.0021C12.1224 14.895 11.8789 14.895 11.6751 15.0021L8.2507 16.8024C8.07872 16.8928 7.87956 16.7481 7.91239 16.5566L8.56639 12.7435C8.60529 12.5166 8.53007 12.2851 8.36522 12.1243L5.59481 9.4239C5.45566 9.28827 5.53178 9.05415 5.72405 9.02615L9.55264 8.46982C9.78045 8.43671 9.97744 8.29366 10.0793 8.0872L11.7916 4.61787C11.8775 4.44376 12.1237 4.44363 12.2097 4.61791L13.9219 8.0872C14.0238 8.29366 14.2208 8.43675 14.4486 8.46982L18.2772 9.02615C18.4695 9.05415 18.5455 9.28831 18.4064 9.4239Z" fill="#222222"/>
<path d="M7.02931 3.43984L6.19271 2.28837C5.96555 1.97588 5.52813 1.90653 5.21564 2.13368C4.90311 2.36076 4.8338 2.79822 5.06091 3.11075L5.89751 4.26218C6.12475 4.57484 6.56217 4.6439 6.87458 4.41687C7.18711 4.18984 7.25642 3.75237 7.02931 3.43984Z" fill="#222222"/>
<path d="M4.25341 13.7585C4.1341 13.3911 3.73947 13.1899 3.37197 13.3094L1.99084 13.7582C1.62343 13.8775 1.42238 14.2721 1.54174 14.6396C1.6613 15.0076 2.05659 15.208 2.42318 15.0887L3.80431 14.6399C4.17176 14.5205 4.37281 14.1259 4.25341 13.7585Z" fill="#222222"/>
<path d="M18.7838 2.13366C18.4713 1.90659 18.0338 1.97582 17.8067 2.28835L16.9701 3.43978C16.743 3.75231 16.8123 4.18981 17.1248 4.41684C17.4375 4.644 17.8749 4.57457 18.1019 4.26216L18.9385 3.11073C19.1656 2.7982 19.0963 2.36069 18.7838 2.13366Z" fill="#222222"/>
<path d="M22.0094 13.7582L20.6283 13.3094C20.2609 13.1898 19.8662 13.3911 19.7468 13.7585C19.6274 14.1259 19.8285 14.5206 20.1959 14.64L21.5771 15.0887C21.9437 15.208 22.3389 15.0076 22.4585 14.6396C22.5779 14.2722 22.3768 13.8776 22.0094 13.7582Z" fill="#222222"/>
<path d="M12.0003 19.1812C11.614 19.1812 11.3008 19.4943 11.3008 19.8807V21.3004C11.3008 21.6867 11.614 21.9999 12.0003 21.9999C12.3866 21.9999 12.6998 21.6867 12.6998 21.3004V19.8807C12.6998 19.4943 12.3866 19.1812 12.0003 19.1812Z" fill="#222222"/>
</svg>
