<svg width="24" height="24" viewBox="0 0 24 24" fill="none" xmlns="http://www.w3.org/2000/svg">
<path fill-rule="evenodd" clip-rule="evenodd" d="M11.1303 21.2609C10.1218 21.2609 9.3042 20.4433 9.3042 19.4348V4.82609C9.3042 3.81757 10.1218 3 11.1303 3H21.1738C22.1823 3 22.9999 3.81757 22.9999 4.82609V19.4348C22.9999 20.4433 22.1823 21.2609 21.1738 21.2609H11.1303ZM10.6738 19.4348C10.6738 19.6869 10.8782 19.8913 11.1303 19.8913H21.1738C21.4259 19.8913 21.6303 19.6869 21.6303 19.4348V4.82609C21.6303 4.57396 21.4259 4.36957 21.1738 4.36957H11.1303C10.8782 4.36957 10.6738 4.57396 10.6738 4.82609V19.4348Z" fill="#222222"/>
<path fill-rule="evenodd" clip-rule="evenodd" d="M7.6344 4.97634C7.80353 5.31461 7.66642 5.72594 7.32815 5.89508C7.11954 5.99938 7.05848 6.05646 7.04017 6.07904C7.03598 6.08419 7.03474 6.08641 7.03262 6.09308C7.02957 6.1027 7.02191 6.13248 7.02191 6.19565V18.0652C7.02191 18.1284 7.02957 18.1581 7.03262 18.1677C7.03473 18.1744 7.03598 18.1767 7.04016 18.1818C7.05847 18.2043 7.11952 18.2614 7.32815 18.3658C7.66642 18.5349 7.80353 18.9462 7.6344 19.2845C7.46526 19.6228 7.05393 19.7599 6.71566 19.5907C6.46777 19.4668 6.18644 19.3034 5.97648 19.0445C5.744 18.7579 5.65234 18.4245 5.65234 18.0652V6.19565C5.65234 5.83638 5.744 5.50296 5.97647 5.21633C6.18643 4.95746 6.46776 4.79405 6.71566 4.6701C7.05393 4.50097 7.46526 4.63808 7.6344 4.97634Z" fill="#222222"/>
<path fill-rule="evenodd" clip-rule="evenodd" d="M3.96231 6.3093C4.15169 6.63666 4.03982 7.05556 3.71245 7.24494C3.57579 7.32399 3.47822 7.40068 3.42036 7.46855C3.36956 7.52814 3.36957 7.55527 3.36957 7.56502V16.6957C3.36957 16.7054 3.36956 16.7327 3.42036 16.7923C3.47822 16.8602 3.57579 16.9369 3.71245 17.016C4.03982 17.2053 4.15169 17.6242 3.96231 17.9515C3.77295 18.279 3.35404 18.3908 3.02668 18.2015C2.66615 17.9929 2 17.5237 2 16.6957V7.56522C2 6.73718 2.66615 6.26798 3.02668 6.05943C3.35404 5.87006 3.77295 5.98192 3.96231 6.3093Z" fill="#222222"/>
</svg>
