<svg width="37" height="30" viewBox="0 0 37 30" fill="none" xmlns="http://www.w3.org/2000/svg">
<path d="M36.9001 13.9833L34.5001 25.9833C34.2729 27.1158 33.6607 28.1346 32.7675 28.8669C31.8743 29.5991 30.7551 29.9995 29.6001 30H5.66675C4.34067 30 3.0689 29.4732 2.13121 28.5355C1.19353 27.5979 0.666748 26.3261 0.666748 25V5C0.666748 3.67392 1.19353 2.40215 2.13121 1.46447C3.0689 0.526784 4.34067 0 5.66675 0H12.3334C12.6601 0.00255137 12.9789 0.101079 13.2501 0.283333L17.8334 3.33333H27.3334C28.6595 3.33333 29.9313 3.86012 30.8689 4.7978C31.8066 5.73548 32.3334 7.00725 32.3334 8.33333H29.0001C29.0001 7.89131 28.8245 7.46738 28.5119 7.15482C28.1994 6.84226 27.7754 6.66667 27.3334 6.66667H17.3334C17.0067 6.66411 16.6879 6.56559 16.4167 6.38333L11.8334 3.33333H5.66675C5.22472 3.33333 4.8008 3.50893 4.48824 3.82149C4.17568 4.13405 4.00008 4.55797 4.00008 5V25C4.00008 25.442 4.17568 25.866 4.48824 26.1785C4.8008 26.4911 5.22472 26.6667 5.66675 26.6667H5.96675L8.50008 14.0167C8.72723 12.8842 9.33943 11.8654 10.2327 11.1331C11.1259 10.4009 12.2451 10.0005 13.4001 10H33.6334C34.1273 9.99877 34.6152 10.1073 35.062 10.3177C35.5087 10.5281 35.9032 10.8352 36.2168 11.2167C36.5281 11.5986 36.7508 12.0449 36.869 12.5233C36.9871 13.0017 36.9978 13.5003 36.9001 13.9833Z" fill="#6C48DD"/>
</svg>
