<svg width="24" height="24" viewBox="0 0 24 24" fill="none" xmlns="http://www.w3.org/2000/svg">
<mask id="mask0_150_1259" style="mask-type:alpha" maskUnits="userSpaceOnUse" x="0" y="0" width="24" height="24">
<rect width="24" height="24" transform="matrix(-1 0 0 1 24 0)" fill="#D9D9D9"/>
</mask>
<g mask="url(#mask0_150_1259)">
<path d="M16.1752 12.9998L11.2752 17.8998C11.0752 18.0998 10.9794 18.3331 10.9877 18.5998C10.996 18.8665 11.1002 19.0998 11.3002 19.2998C11.5002 19.4831 11.7335 19.579 12.0002 19.5873C12.2669 19.5956 12.5002 19.4998 12.7002 19.2998L19.3002 12.6998C19.4002 12.5998 19.471 12.4915 19.5127 12.3748C19.5544 12.2581 19.5752 12.1331 19.5752 11.9998C19.5752 11.8665 19.5544 11.7415 19.5127 11.6248C19.471 11.5081 19.4002 11.3998 19.3002 11.2998L12.7002 4.6998C12.5169 4.51647 12.2877 4.4248 12.0127 4.4248C11.7377 4.4248 11.5002 4.51647 11.3002 4.6998C11.1002 4.8998 11.0002 5.1373 11.0002 5.4123C11.0002 5.6873 11.1002 5.9248 11.3002 6.1248L16.1752 10.9998H5.0002C4.71686 10.9998 4.47936 11.0956 4.28769 11.2873C4.09603 11.479 4.0002 11.7165 4.0002 11.9998C4.0002 12.2831 4.09603 12.5206 4.28769 12.7123C4.47936 12.904 4.71686 12.9998 5.0002 12.9998H16.1752Z" fill="white"/>
</g>
</svg>
