<svg width="36" height="36" viewBox="0 0 36 36" fill="none" xmlns="http://www.w3.org/2000/svg">
<g clip-path="url(#clip0_12_1469)">
<mask id="mask0_12_1469" style="mask-type:alpha" maskUnits="userSpaceOnUse" x="0" y="0" width="36" height="36">
<path d="M36 0H0V36H36V0Z" fill="#D9D9D9"/>
</mask>
<g mask="url(#mask0_12_1469)">
<path d="M18 33C9.92016 33 3 26.1636 3 18C3 9.92016 9.83634 3 18 3C26.0799 3 33 9.83634 33 18C33 26.0799 26.1636 33 18 33Z" fill="white"/>
<path d="M18.0001 20.0997L22.3501 24.4497C22.6252 24.7247 22.9752 24.8622 23.4001 24.8622C23.8252 24.8622 24.1752 24.7247 24.4501 24.4497C24.7252 24.1748 24.8626 23.8247 24.8626 23.3997C24.8626 22.9748 24.7252 22.6247 24.4501 22.3497L20.1001 17.9997L24.4501 13.6497C24.7252 13.3747 24.8626 13.0247 24.8626 12.5997C24.8626 12.1747 24.7252 11.8247 24.4501 11.5497C24.1752 11.2747 23.8252 11.1372 23.4001 11.1372C22.9752 11.1372 22.6252 11.2747 22.3501 11.5497L18.0001 15.8997L13.6502 11.5497C13.3752 11.2747 13.0252 11.1372 12.6002 11.1372C12.1752 11.1372 11.8252 11.2747 11.5502 11.5497C11.2752 11.8247 11.1377 12.1747 11.1377 12.5997C11.1377 13.0247 11.2752 13.3747 11.5502 13.6497L15.9001 17.9997L11.5502 22.3497C11.2752 22.6247 11.1377 22.9748 11.1377 23.3997C11.1377 23.8247 11.2752 24.1748 11.5502 24.4497C11.8252 24.7247 12.1752 24.8622 12.6002 24.8622C13.0252 24.8622 13.3752 24.7247 13.6502 24.4497L18.0001 20.0997Z" fill="black"/>
</g>
</g>
<defs>
<clipPath id="clip0_12_1469">
<rect width="36" height="36" fill="white"/>
</clipPath>
</defs>
</svg>
