<svg width="24" height="30" viewBox="0 0 24 30" fill="none" xmlns="http://www.w3.org/2000/svg">
<g clip-path="url(#clip0_10_2056)">
<path d="M24 5.3C24 5.7 23.9 6 23.6 6.2C23.3 6.4 23 6.6 22.6 6.6H1.3C1 6.7 0.6 6.5 0.4 6.3C0.2 6.1 0 5.7 0 5.3C0 4.9 0.1 4.6 0.4 4.3C0.7 4 1 4 1.3 4H6.6V1.3C6.6 0.9 6.7 0.6 7 0.3C7.3 0 7.6 0 8 0H16C16.3 0 16.7 0.1 16.9 0.4C17.1 0.7 17.3 1 17.3 1.4V4H22.6C23 4 23.3 4.1 23.6 4.4C23.9 4.7 24 5 24 5.3Z" fill="#DD4848"/>
<path d="M22.2998 8.4C21.9998 8.1 21.6998 8 21.2998 8H2.6998C2.2998 8 1.9998 8.1 1.6998 8.4C1.3998 8.7 1.2998 9 1.2998 9.3V24.2C1.2998 25.6 1.8998 26.9 2.8998 27.8C3.8998 28.8 5.2998 29.3 6.5998 29.2H17.1998C18.5998 29.2 19.8998 28.7 20.8998 27.8C21.8998 26.9 22.4998 25.5 22.4998 24.2V9.3C22.6998 9 22.4998 8.6 22.2998 8.4ZM7.9998 23.3V14C7.9998 13.6 8.0998 13.3 8.3998 13.1C8.6998 12.9 8.9998 12.7 9.2998 12.7C9.6998 12.7 9.9998 12.8 10.1998 13.1C10.3998 13.4 10.5998 13.7 10.5998 14V23.3C10.5998 23.7 10.4998 24 10.1998 24.2C9.8998 24.4 9.5998 24.6 9.2998 24.6C8.9998 24.6 8.5998 24.5 8.3998 24.2C8.1998 23.9 7.9998 23.7 7.9998 23.3ZM15.9998 23.3C15.9998 23.7 15.8998 24 15.5998 24.2C15.2998 24.4 14.9998 24.6 14.5998 24.6C14.2998 24.6 13.8998 24.5 13.6998 24.2C13.4998 23.9 13.2998 23.6 13.2998 23.3V14C13.2998 13.6 13.3998 13.3 13.6998 13.1C13.9998 12.9 14.2998 12.7 14.5998 12.7C14.9998 12.7 15.2998 12.8 15.5998 13.1C15.8998 13.4 15.9998 13.6 15.9998 14V23.3Z" fill="#DD4848"/>
</g>
<defs>
<clipPath id="clip0_10_2056">
<rect width="24" height="29.3" fill="white"/>
</clipPath>
</defs>
</svg>
