<svg width="32" height="32" viewBox="0 0 32 32" fill="none" xmlns="http://www.w3.org/2000/svg">
<path d="M20.0475 9.92725C18.9919 9.92725 18.133 9.02771 18.133 7.92204V1.3335H8.34155C6.68264 1.3335 5.33301 2.74705 5.33301 4.48454V27.5158C5.33301 29.2533 6.68264 30.6668 8.34155 30.6668H23.6578C25.3167 30.6668 26.6663 29.2533 26.6663 27.5158V9.92725H20.0475ZM9.81848 21.9585H13.7963C14.2495 21.9585 14.6168 22.3433 14.6168 22.8179C14.6168 23.2925 14.2495 23.6772 13.7963 23.6772H9.81848C9.36534 23.6772 8.99797 23.2925 8.99797 22.8179C8.99797 22.3433 9.36534 21.9585 9.81848 21.9585ZM8.99797 18.2345C8.99797 17.7599 9.36534 17.3752 9.81848 17.3752H21.8527C22.3058 17.3752 22.6732 17.7599 22.6732 18.2345C22.6732 18.7091 22.3058 19.0939 21.8527 19.0939H9.81848C9.36534 19.0939 8.99797 18.7091 8.99797 18.2345ZM21.8527 12.7918C22.3058 12.7918 22.6732 13.1766 22.6732 13.6512C22.6732 14.1258 22.3058 14.5106 21.8527 14.5106H9.81848C9.36534 14.5106 8.99797 14.1258 8.99797 13.6512C8.99797 13.1766 9.36534 12.7918 9.81848 12.7918H21.8527Z" fill="#222222"/>
<path d="M20 7.76546C20 7.8947 20.1253 7.99984 20.2794 7.99984H26.6667C26.5133 7.76237 26.3161 7.54426 26.0791 7.35616L20.6915 3.08017C20.4824 2.91424 20.2495 2.77582 20.0001 2.6665V7.76546H20Z" fill="#222222"/>
</svg>
