<svg width="24" height="24" viewBox="0 0 24 24" fill="none" xmlns="http://www.w3.org/2000/svg">
<path fill-rule="evenodd" clip-rule="evenodd" d="M4.45121 15.84C4.9814 15.84 5.41121 16.2698 5.41121 16.8V18.72C5.41121 18.9746 5.51234 19.2187 5.6924 19.3988C5.87242 19.5788 6.11659 19.68 6.37121 19.68H17.8912C18.1458 19.68 18.3899 19.5789 18.57 19.3988C18.7501 19.2187 18.8512 18.9746 18.8512 18.72V16.8C18.8512 16.2698 19.281 15.84 19.8112 15.84C20.3414 15.84 20.7712 16.2698 20.7712 16.8V18.72C20.7712 19.4838 20.4678 20.2163 19.9276 20.7564C19.3875 21.2965 18.655 21.6 17.8912 21.6H6.37121C5.60741 21.6 4.87484 21.2966 4.33472 20.7564C3.79465 20.2163 3.49121 19.4838 3.49121 18.72V16.8C3.49121 16.2698 3.92101 15.84 4.45121 15.84Z" fill="white"/>
<path fill-rule="evenodd" clip-rule="evenodd" d="M6.65227 10.3612C7.02718 9.98627 7.63501 9.98627 8.00992 10.3612L12.1311 14.4824L16.2523 10.3612C16.6271 9.98627 17.235 9.98627 17.6099 10.3612C17.9849 10.7361 17.9849 11.3439 17.6099 11.7188L12.8099 16.5188C12.435 16.8937 11.8271 16.8937 11.4523 16.5188L6.65227 11.7188C6.27737 11.3439 6.27737 10.7361 6.65227 10.3612Z" fill="white"/>
<path fill-rule="evenodd" clip-rule="evenodd" d="M12.1311 3.36C12.6614 3.36 13.0911 3.78981 13.0911 4.32V15.84C13.0911 16.3702 12.6614 16.8 12.1311 16.8C11.6009 16.8 11.1711 16.3702 11.1711 15.84V4.32C11.1711 3.78981 11.6009 3.36 12.1311 3.36Z" fill="white"/>
</svg>
