<svg width="120" height="120" viewBox="0 0 120 120" fill="none" xmlns="http://www.w3.org/2000/svg">
<g clip-path="url(#clip0_59_465)">
<path d="M120 44.6688V112.53H28.7496C27.2212 112.53 25.9849 111.292 25.9849 109.766V35.3201C25.9849 33.7917 27.2212 32.5554 28.7496 32.5554H62.2771C63.0086 32.5554 63.7113 32.8451 64.2304 33.3642L71.9615 41.0953C72.4806 41.6145 73.1833 41.9041 73.9171 41.9041H117.235C118.761 41.9044 120 43.143 120 44.6688Z" fill="#756F6F" fill-opacity="0.5"/>
<path d="M120 44.6688V112.53H110.82V44.6688C110.82 43.1428 109.584 41.9041 108.056 41.9041H117.235C118.762 41.9044 120 43.1431 120 44.6688Z" fill="#5B5555" fill-opacity="0.5"/>
<path d="M91.8046 77.8634L120 112.531H27.2985C26.4665 112.531 25.679 112.156 25.154 111.511L0.624974 81.3516C-0.844088 79.5452 0.441225 76.8431 2.76951 76.8431H89.6598C90.4921 76.8431 91.2798 77.2179 91.8046 77.8634Z" fill="#3B1D97" fill-opacity="0.75"/>
<path d="M120 112.53H108.111L79.9175 77.8634C79.3911 77.2186 78.6041 76.842 77.7734 76.842H89.66C90.493 76.842 91.28 77.2186 91.8041 77.8634L120 112.53Z" fill="#3B1D97" fill-opacity="0.75"/>
<path d="M99.006 104.4H74.6153C73.8613 104.4 73.1507 104.047 72.6939 103.447L66.4431 95.2341C65.8382 94.4393 66.4052 93.2958 67.4038 93.2958H91.7945C92.5485 93.2958 93.2591 93.648 93.7159 94.248L99.9667 102.461C100.572 103.256 100.005 104.4 99.006 104.4Z" fill="#F8F3F1"/>
<path d="M99.0064 104.399H91.1593C92.1589 104.399 92.7264 103.257 92.1203 102.46L85.8692 94.2485C85.4129 93.6474 84.703 93.2949 83.9497 93.2949H91.7945C92.5501 93.2949 93.26 93.6474 93.7164 94.2485L99.9674 102.46C100.571 103.257 100.006 104.399 99.0064 104.399Z" fill="#EFE2DD"/>
<path d="M60 106.21H48.9206C47.9206 106.21 47.1099 105.399 47.1099 104.399C47.1099 103.399 47.9206 102.588 48.9206 102.588H60C61.0001 102.588 61.8108 103.399 61.8108 104.399C61.8108 105.399 61.0001 106.21 60 106.21Z" fill="#F8F3F1"/>
<path d="M55.9569 100.204H51.2541C50.2541 100.204 49.4434 99.3928 49.4434 98.3927C49.4434 97.3927 50.2541 96.582 51.2541 96.582H55.9569C56.957 96.582 57.7677 97.3927 57.7677 98.3927C57.7679 99.3928 56.9572 100.204 55.9569 100.204Z" fill="#F8F3F1"/>
<path d="M54.5119 33.4127C54.5119 19.0844 42.8965 7.46906 28.5684 7.46906C14.2535 7.46906 2.62451 19.098 2.62451 33.413C2.62475 47.7412 14.2399 59.3564 28.5682 59.3564H49.8494C51.57 59.3564 52.4318 57.2761 51.2151 56.0594L46.9132 51.7575C51.6082 47.063 54.5119 40.5769 54.5119 33.4127Z" fill="#3B1D97" fill-opacity="0.75"/>
<path d="M51.2141 56.0604C52.431 57.2773 51.5715 59.3562 49.85 59.3562H41.0999C42.819 59.3562 43.681 57.2773 42.4639 56.0604L39.7963 53.3913C38.9089 52.5035 38.8527 51.0865 39.6617 50.1267C43.4675 45.6127 45.7621 39.7795 45.7621 33.4125C45.7621 20.5772 36.4398 9.91711 24.1958 7.83821C25.3806 7.635 26.5923 7.51407 27.8253 7.47914C42.3343 7.07039 54.267 18.4577 54.5085 32.9705C54.6306 40.309 51.7037 46.9673 46.9138 51.7575L51.2141 56.0604Z" fill="#3B1D97" fill-opacity="0.75"/>
<path d="M33.6898 33.413L38.5158 28.587C39.9303 27.1725 39.9303 24.8794 38.5158 23.4652C37.1016 22.0507 34.8082 22.0507 33.394 23.4652L28.568 28.2912L23.7422 23.4649C22.328 22.0505 20.0346 22.0505 18.6204 23.4649C17.206 24.8791 17.206 27.1723 18.6204 28.5867L23.4464 33.4127L18.6204 38.2388C17.206 39.6532 17.206 41.9463 18.6204 43.3606C19.3275 44.0679 20.2545 44.4213 21.1814 44.4213C22.1084 44.4213 23.0351 44.0677 23.7424 43.3606L28.5685 38.5345L33.3945 43.3606C34.1018 44.0679 35.0283 44.4213 35.9555 44.4213C36.8822 44.4213 37.8092 44.0677 38.5165 43.3606C39.931 41.9463 39.931 39.6532 38.5165 38.2388L33.6898 33.413Z" fill="#F8F3F1"/>
<path fill-rule="evenodd" clip-rule="evenodd" d="M81.2073 47.1596C82.1363 46.0045 82.6923 44.5366 82.6923 42.9389C82.6923 39.2168 79.6749 36.1995 75.9528 36.1995C72.2307 36.1995 69.2134 39.2168 69.2134 42.9389C69.2134 45.6288 70.7892 47.9506 73.0681 49.0315C73.9423 49.4481 74.9213 49.68 75.9531 49.68C78.077 49.68 79.972 48.6964 81.2073 47.1596Z" fill="white"/>
<path fill-rule="evenodd" clip-rule="evenodd" d="M99.8417 24.2288C99.7469 24.2238 99.6514 24.2213 99.5553 24.2213C96.618 24.2213 94.2368 26.6024 94.2368 29.5397C94.2368 31.6828 95.5044 33.5298 97.3306 34.3719C98.0073 34.6853 98.7617 34.8593 99.5556 34.8593C101.286 34.8593 102.824 34.0319 103.795 32.7508C104.472 31.8585 104.874 30.746 104.874 29.5397C104.874 26.6985 102.646 24.3777 99.8417 24.2288Z" fill="white"/>
<path d="M87.4032 19.8188L88.3829 18.8391C89.0903 18.1317 89.0903 16.9854 88.3829 16.2781C87.6758 15.5709 86.5292 15.5709 85.8219 16.2781L84.8422 17.2577L83.8625 16.2781C83.1554 15.5707 82.0088 15.5707 81.3015 16.2781C80.5942 16.9852 80.5942 18.1317 81.3015 18.8391L82.2812 19.8188L81.3015 20.7984C80.5942 21.5058 80.5942 22.6521 81.3015 23.3595C81.6552 23.7131 82.1185 23.8898 82.5819 23.8898C83.0453 23.8898 83.5089 23.7129 83.8623 23.3595L84.842 22.3798L85.8217 23.3595C86.1753 23.7131 86.6387 23.8898 87.1021 23.8898C87.5654 23.8898 88.029 23.7129 88.3824 23.3595C89.0898 22.6523 89.0898 21.5058 88.3824 20.7984L87.4032 19.8188Z" fill="#3B1D97" fill-opacity="0.5"/>
<path d="M13.5587 60.9293C12.8516 60.2222 11.7051 60.2222 10.9977 60.9293L9.29193 62.6351L7.58615 60.9293C6.87904 60.2222 5.73248 60.2222 5.02514 60.9293C4.31779 61.6364 4.31779 62.783 5.02514 63.4903L6.73092 65.1961L5.02514 66.9019C4.31779 67.609 4.31779 68.7555 5.02514 69.4629C5.37881 69.8166 5.84217 69.9933 6.30553 69.9933C6.76889 69.9933 7.23248 69.8163 7.58592 69.4629L9.2917 67.7571L10.9975 69.4629C11.3512 69.8166 11.8145 69.9933 12.2779 69.9933C12.7412 69.9933 13.2048 69.8163 13.5583 69.4629C14.2656 68.7558 14.2656 67.6092 13.5583 66.9019L11.8525 65.1961L13.5583 63.4903C14.2658 62.783 14.2658 61.6364 13.5587 60.9293Z" fill="#3B1D97" fill-opacity="0.5"/>
</g>
<defs>
<clipPath id="clip0_59_465">
<rect width="120" height="120" fill="white"/>
</clipPath>
</defs>
</svg>
