<svg width="80" height="80" viewBox="0 0 80 80" fill="none" xmlns="http://www.w3.org/2000/svg">
<circle cx="40" cy="40" r="40" fill="#0C0B14"/>
<path d="M47.8991 28.5472V37.2041H45.4514V28.5472C45.4514 25.2549 42.9503 22.5782 39.8724 22.5782C36.7945 22.5782 34.2934 25.2549 34.2934 28.5472V37.2041H31.8457V28.5472C31.8457 23.8322 35.4469 20 39.8724 20C44.2979 20 47.8991 23.8322 47.8991 28.5472Z" fill="white"/>
<path d="M29.681 36.3665H49.9755C50.4173 36.3705 50.8398 36.5483 51.1515 36.8614C51.4633 37.1744 51.6392 37.5976 51.6411 38.0393V50.5834C51.6411 51.8203 51.3974 53.0451 50.9237 54.1878C50.4501 55.3306 49.7559 56.3688 48.8808 57.2433C48.0057 58.1177 46.9668 58.8113 45.8236 59.2843C44.6803 59.7573 43.455 60.0005 42.2176 60H37.4197C34.9214 60 32.5255 59.0079 30.759 57.2419C28.9924 55.476 28 53.0808 28 50.5834V38.0393C28 37.5936 28.1771 37.1662 28.4924 36.851C28.8076 36.5359 29.2352 36.3589 29.681 36.3589V36.3665Z" fill="#3B1D97"/>
<path d="M42.283 44.9743C42.2837 45.5102 42.1255 46.0343 41.8283 46.4803C41.5311 46.9262 41.1083 47.274 40.6134 47.4796C40.1184 47.6852 39.5737 47.7394 39.0479 47.6353C38.5222 47.5312 38.0392 47.2735 37.66 46.8948C37.2808 46.5161 37.0224 46.0334 36.9176 45.5079C36.8127 44.9823 36.8662 44.4374 37.0711 43.9422C37.276 43.447 37.6232 43.0237 38.0688 42.7259C38.5143 42.4281 39.0382 42.2691 39.5741 42.2691C40.2919 42.2691 40.9804 42.554 41.4883 43.0612C41.9962 43.5684 42.282 44.2565 42.283 44.9743Z" fill="black"/>
<path d="M38.9745 46.7018L36.8652 53.1047H42.7755L40.5174 46.7018H38.9745Z" fill="black"/>
</svg>
