<svg width="40" height="40" viewBox="0 0 40 40" fill="none" xmlns="http://www.w3.org/2000/svg">
<rect width="40" height="40" rx="8" fill="#4A4B56"/>
<path d="M20 23.5018C19.3074 23.5018 18.6303 23.2964 18.0545 22.9116C17.4786 22.5269 17.0298 21.9799 16.7647 21.3401C16.4997 20.7002 16.4303 19.9961 16.5654 19.3168C16.7006 18.6375 17.0341 18.0136 17.5238 17.5238C18.0135 17.0341 18.6375 16.7006 19.3168 16.5655C19.9961 16.4303 20.7002 16.4997 21.3401 16.7647C21.9799 17.0298 22.5268 17.4786 22.9116 18.0545C23.2964 18.6304 23.5018 19.3074 23.5018 20C23.5003 20.9283 23.1309 21.8181 22.4745 22.4746C21.8181 23.131 20.9283 23.5004 20 23.5018ZM26.9436 20.8563C27.02 20.288 27.02 19.712 26.9436 19.1436L28.4981 17.5564C28.5881 17.4629 28.6457 17.343 28.6624 17.2144C28.6791 17.0857 28.654 16.9551 28.5909 16.8418L26.9981 14.1582C26.9324 14.0459 26.8319 13.9581 26.7119 13.9079C26.5919 13.8578 26.4588 13.8479 26.3327 13.88L24.1836 14.4254C23.7203 14.0771 23.2167 13.7859 22.6836 13.5582L22.1381 11.4473C22.1017 11.3219 22.0257 11.2117 21.9215 11.1331C21.8173 11.0544 21.6905 11.0116 21.56 11.0109H18.4563C18.3258 11.0116 18.199 11.0544 18.0948 11.1331C17.9906 11.2117 17.9146 11.3219 17.8781 11.4473L17.2727 13.5473C16.7379 13.7749 16.2324 14.0661 15.7672 14.4145L13.6181 13.8691C13.4921 13.8379 13.3593 13.8482 13.2395 13.8983C13.1196 13.9484 13.0191 14.0357 12.9527 14.1473L11.4363 16.8418C11.3679 16.9518 11.3373 17.0811 11.3491 17.2101C11.3609 17.339 11.4145 17.4606 11.5018 17.5564L13.0345 19.1436C12.9581 19.712 12.9581 20.288 13.0345 20.8563L11.5018 22.4436C11.4118 22.5371 11.3542 22.657 11.3376 22.7856C11.3209 22.9142 11.3459 23.0448 11.4091 23.1582L13.0018 25.8418C13.0676 25.954 13.168 26.0419 13.288 26.092C13.4081 26.1422 13.5412 26.152 13.6672 26.12L15.8163 25.5745C16.2785 25.9232 16.7824 26.2127 17.3163 26.4364L17.9218 28.5527C17.955 28.6737 18.0257 28.7811 18.1237 28.8594C18.2216 28.9378 18.3419 28.9832 18.4672 28.9891H21.56C21.6968 29.0009 21.8335 28.965 21.9469 28.8874C22.0602 28.8099 22.1432 28.6955 22.1818 28.5636L22.7872 26.4473C23.3212 26.2236 23.8251 25.9341 24.2872 25.5854L26.4363 26.1309C26.55 26.1451 26.6654 26.1264 26.7688 26.0771C26.8722 26.0278 26.9594 25.95 27.02 25.8527L28.5691 23.1745C28.6401 23.0654 28.6737 22.9362 28.6649 22.8063C28.656 22.6764 28.6051 22.553 28.52 22.4545L26.9436 20.8563Z" fill="white"/>
</svg>
