<svg width="18" height="22" viewBox="0 0 18 22" fill="none" xmlns="http://www.w3.org/2000/svg">
<g clip-path="url(#clip0_91_2119)">
<path d="M16.8 9.2C16.2 8.6 15.3 8.2 14.5 8.1C14.3 8.1 14.2 8.1 14 8.1H4C3.9 8 3.7 8 3.5 8C2.6 8.1 1.8 8.5 1.2 9.2C0.4 9.9 0 10.9 0 12V18C0 19.1 0.4 20.1 1.2 20.8C2 21.5 2.9 22 4 22H14C15.1 22 16.1 21.6 16.8 20.8C17.5 20 18 19.1 18 18V12C18 10.9 17.6 9.9 16.8 9.2ZM16 18C16 18.5 15.8 19 15.4 19.4C15 19.8 14.5 20 14 20H4C3.5 20 3 19.8 2.6 19.4C2.2 19 2 18.5 2 18V12C2 11.5 2.2 11 2.6 10.6C3 10.2 3.5 10 4 10H14C14.5 10 15 10.2 15.4 10.6C15.8 11 16 11.5 16 12V18Z" fill="white"/>
<path d="M12.9 1.6C11.9 0.6 10.5 0 9 0C7.5 0 6.1 0.6 5.1 1.6C4.3 2.5 3.7 3.6 3.6 4.8H5.6C5.7 4.1 6 3.5 6.5 3C7.2 2.4 8.1 2 9 2C9.9 2 10.8 2.4 11.5 3C12.2 3.7 12.5 4.5 12.5 5.5V8H4C3.9 8 3.7 8 3.5 8V9C3.5 9.1 3.5 9.3 3.6 9.4C3.6 9.5 3.7 9.6 3.8 9.7C3.9 9.8 4 9.9 4.1 9.9C4.2 10 4.4 10 4.5 10H13.5C13.6 10 13.8 10 13.9 9.9C14 9.8 14.1 9.8 14.2 9.7C14.3 9.6 14.4 9.5 14.4 9.4C14.4 9.3 14.5 9.1 14.5 9V5.5C14.5 4 13.9 2.6 12.9 1.6Z" fill="white"/>
<path d="M9 15.5C9.8 15.5 10.5 14.8 10.5 14C10.5 13.2 9.8 12.5 9 12.5C8.2 12.5 7.5 13.2 7.5 14C7.5 14.8 8.2 15.5 9 15.5Z" fill="white"/>
</g>
<defs>
<clipPath id="clip0_91_2119">
<rect width="18" height="22" fill="white"/>
</clipPath>
</defs>
</svg>
