<svg width="40" height="40" viewBox="0 0 40 40" fill="none" xmlns="http://www.w3.org/2000/svg">
<rect width="40" height="40" rx="8" fill="#4A4B56"/>
<path d="M20 14.125C20.9665 14.125 21.75 13.3415 21.75 12.375C21.75 11.4085 20.9665 10.625 20 10.625C19.0335 10.625 18.25 11.4085 18.25 12.375C18.25 13.3415 19.0335 14.125 20 14.125Z" fill="white"/>
<path d="M29 17.125C29.9665 17.125 30.75 16.3415 30.75 15.375C30.75 14.4085 29.9665 13.625 29 13.625C28.0335 13.625 27.25 14.4085 27.25 15.375C27.25 16.3415 28.0335 17.125 29 17.125Z" fill="white"/>
<path d="M11 17.125C11.9665 17.125 12.75 16.3415 12.75 15.375C12.75 14.4085 11.9665 13.625 11 13.625C10.0335 13.625 9.25 14.4085 9.25 15.375C9.25 16.3415 10.0335 17.125 11 17.125Z" fill="white"/>
<path fill-rule="evenodd" clip-rule="evenodd" d="M29.2348 16.522C29.2988 16.204 29.1508 15.882 28.8698 15.722C28.5878 15.563 28.2348 15.602 27.9948 15.82C27.9948 15.82 26.9488 16.771 25.7688 17.844C25.2168 18.346 24.4518 18.541 23.7268 18.366C23.0018 18.191 22.4108 17.668 22.1488 16.969L20.7018 13.112C20.5918 12.819 20.3128 12.625 19.9998 12.625C19.6868 12.625 19.4078 12.819 19.2978 13.112L17.8508 16.969C17.5888 17.668 16.9978 18.191 16.2728 18.366C15.5478 18.541 14.7828 18.346 14.2308 17.844C13.0508 16.771 12.0048 15.82 12.0048 15.82C11.7648 15.602 11.4118 15.563 11.1298 15.722C10.8488 15.882 10.7008 16.204 10.7648 16.522C10.7648 16.522 11.8778 22.087 12.4428 24.914C12.6998 26.2 13.8288 27.125 15.1398 27.125H24.8598C26.1708 27.125 27.2998 26.2 27.5568 24.914C28.1218 22.087 29.2348 16.522 29.2348 16.522Z" fill="white"/>
<path fill-rule="evenodd" clip-rule="evenodd" d="M26 28.625H14C13.586 28.625 13.25 28.961 13.25 29.375C13.25 29.789 13.586 30.125 14 30.125H26C26.414 30.125 26.75 29.789 26.75 29.375C26.75 28.961 26.414 28.625 26 28.625Z" fill="white"/>
</svg>
