<svg width="24" height="24" viewBox="0 0 24 24" fill="none" xmlns="http://www.w3.org/2000/svg">
<circle cx="12" cy="12" r="12" fill="#1D212C"/>
<g clip-path="url(#clip0_10_2264)">
<path d="M16.7743 8.57329C17.1039 8.90287 17.1039 9.43714 16.7743 9.76657L11.1139 15.4271C10.7843 15.7565 10.2502 15.7565 9.92065 15.4271L7.22609 12.7324C6.8965 12.403 6.8965 11.8687 7.22609 11.5393C7.55551 11.2097 8.08978 11.2097 8.4192 11.5393L10.5172 13.6373L15.581 8.57329C15.9106 8.24386 16.4449 8.24386 16.7743 8.57329ZM22.8002 12.0002C22.8002 17.9699 17.9691 22.8002 12.0002 22.8002C6.0305 22.8002 1.2002 17.9691 1.2002 12.0002C1.2002 6.0305 6.03132 1.2002 12.0002 1.2002C17.9699 1.2002 22.8002 6.03132 22.8002 12.0002ZM21.1127 12.0002C21.1127 6.96324 17.0365 2.8877 12.0002 2.8877C6.96324 2.8877 2.8877 6.9639 2.8877 12.0002C2.8877 17.0372 6.9639 21.1127 12.0002 21.1127C17.0372 21.1127 21.1127 17.0365 21.1127 12.0002Z" fill="#3BB44A"/>
</g>
<defs>
<clipPath id="clip0_10_2264">
<rect width="21.6" height="21.6" fill="white" transform="translate(1.2002 1.2002)"/>
</clipPath>
</defs>
</svg>
