<svg width="21" height="29" viewBox="0 0 21 29" fill="none" xmlns="http://www.w3.org/2000/svg">
<path d="M10.4998 0.5C5.9848 0.5 2.31141 4.17324 2.31141 8.68842V13.365C2.31141 13.4182 2.24583 13.5077 2.19431 13.5248C1.75151 13.6725 1.39189 13.8005 1.06269 13.9274C0.670118 14.0787 0.374023 14.5138 0.374023 14.9394V25.685C0.374023 26.1077 0.668204 26.5431 1.05829 26.6977C4.07649 27.8937 7.25307 28.5 10.4998 28.5C13.7465 28.5 16.9231 27.8936 19.9414 26.6976C20.3314 26.543 20.6254 26.1077 20.6254 25.685V14.9394C20.6254 14.5138 20.3293 14.0787 19.9366 13.9272C19.6072 13.8003 19.2477 13.6724 18.8052 13.5247C18.7538 13.5076 18.6882 13.418 18.6882 13.3648V8.68828C18.688 4.17324 15.0149 0.5 10.4998 0.5ZM8.26951 18.2121C8.26951 16.9795 9.26805 15.982 10.4997 15.982C11.7312 15.982 12.7298 16.9794 12.7298 18.2121C12.7298 19.0289 12.2692 19.7127 11.6147 20.1004V23.7875C11.6147 24.4039 11.116 24.9026 10.4996 24.9026C9.88324 24.9026 9.38457 24.4039 9.38457 23.7875V20.1004C8.73015 19.7127 8.26951 19.0289 8.26951 18.2121ZM15.8726 8.68828V12.7233C14.1107 12.3442 12.3031 12.1522 10.5005 12.1521C8.69882 12.1521 6.89159 12.3441 5.12694 12.7229V8.68828C5.12694 5.72566 7.53711 3.31553 10.4997 3.31553C13.4622 3.31548 15.8726 5.72566 15.8726 8.68828Z" fill="white"/>
</svg>
