<svg width="24" height="40" viewBox="0 0 24 40" fill="none" xmlns="http://www.w3.org/2000/svg">
<path d="M19.8991 8.54725V17.2041H17.4514V8.54725C17.4514 5.25487 14.9503 2.57823 11.8724 2.57823C8.79451 2.57823 6.29338 5.25487 6.29338 8.54725V17.2041H3.8457V8.54725C3.8457 3.83221 7.44688 0 11.8724 0C16.2979 0 19.8991 3.83221 19.8991 8.54725Z" fill="white"/>
<path d="M1.68099 16.3665H21.9755C22.4173 16.3705 22.8398 16.5483 23.1515 16.8614C23.4633 17.1744 23.6392 17.5976 23.6411 18.0393V30.5834C23.6411 31.8203 23.3974 33.0451 22.9237 34.1878C22.4501 35.3306 21.7559 36.3688 20.8808 37.2433C20.0057 38.1177 18.9668 38.8113 17.8236 39.2843C16.6803 39.7573 15.455 40.0005 14.2176 40H9.4197C6.92144 40 4.5255 39.0079 2.75897 37.2419C0.992429 35.476 0 33.0808 0 30.5834V18.0393C0 17.5936 0.177104 17.1662 0.492352 16.851C0.8076 16.5359 1.23517 16.3589 1.68099 16.3589V16.3665Z" fill="#3B1D97"/>
<path d="M14.283 24.9743C14.2837 25.5102 14.1255 26.0343 13.8283 26.4803C13.5311 26.9262 13.1083 27.274 12.6134 27.4796C12.1184 27.6852 11.5737 27.7394 11.0479 27.6353C10.5222 27.5312 10.0392 27.2735 9.65997 26.8948C9.28075 26.5161 9.02239 26.0334 8.91756 25.5079C8.81273 24.9823 8.86616 24.4374 9.07108 23.9422C9.276 23.447 9.6232 23.0237 10.0688 22.7259C10.5143 22.4281 11.0382 22.2691 11.5741 22.2691C12.2919 22.2691 12.9804 22.554 13.4883 23.0612C13.9962 23.5684 14.282 24.2565 14.283 24.9743Z" fill="black"/>
<path d="M10.9745 26.7018L8.86523 33.1047H14.7755L12.5174 26.7018H10.9745Z" fill="black"/>
</svg>
