<svg width="24" height="24" viewBox="0 0 24 24" fill="none" xmlns="http://www.w3.org/2000/svg">
<path d="M22.1751 5.015C21.8795 4.66072 21.5159 4.36932 21.1057 4.15805C20.6955 3.94678 20.2471 3.81993 19.7871 3.785L9.22707 2.3C8.77637 2.20684 8.31152 2.20532 7.86022 2.29551C7.40891 2.3857 6.98036 2.56577 6.60007 2.825C6.24552 3.12005 5.9538 3.48325 5.74218 3.8931C5.53056 4.30295 5.40334 4.7511 5.36807 5.211L5.22107 6.248H4.66707C4.20538 6.19438 3.73754 6.24587 3.29856 6.39863C2.85959 6.55139 2.46085 6.80146 2.13219 7.13012C1.80353 7.45878 1.55346 7.85752 1.4007 8.29649C1.24794 8.73547 1.19645 9.20331 1.25007 9.665V18.333C1.19645 18.7947 1.24794 19.2625 1.4007 19.7015C1.55346 20.1405 1.80353 20.5392 2.13219 20.8679C2.46085 21.1965 2.85959 21.4466 3.29856 21.5994C3.73754 21.7521 4.20538 21.8036 4.66707 21.75H15.3351C17.2441 21.75 18.4071 20.836 18.6851 19.16C19.4363 19.1105 20.1419 18.7816 20.6628 18.2381C21.1838 17.6945 21.4825 16.9757 21.5001 16.223L22.7001 7.643C22.7936 7.19215 22.7953 6.72708 22.7051 6.27556C22.6149 5.82403 22.4346 5.39531 22.1751 5.015ZM17.2531 18.333C17.2531 19.695 16.6971 20.25 15.3351 20.25H4.66707C3.30607 20.25 2.75007 19.695 2.75007 18.333V9.665C2.75007 8.303 3.30607 7.748 4.66707 7.748H15.3351C16.6971 7.748 17.2531 8.303 17.2531 9.665V18.333ZM21.2101 7.433L20.0101 16.011C19.8641 17.018 19.4861 17.525 18.7521 17.649V9.665C18.8057 9.20322 18.7542 8.73528 18.6014 8.29622C18.4486 7.85716 18.1984 7.45836 17.8697 7.12968C17.5409 6.801 17.142 6.55096 16.7029 6.39827C16.2638 6.24558 15.7958 6.19421 15.3341 6.248H6.73407L6.85207 5.422C6.87649 4.8885 7.10915 4.38586 7.50007 4.022C7.95561 3.74832 8.50057 3.66498 9.01707 3.79L19.5781 5.27C20.1112 5.295 20.6135 5.52715 20.9781 5.917C21.2511 6.37276 21.3344 6.91647 21.2101 7.433ZM13.2501 14C13.2501 14.1989 13.1711 14.3897 13.0304 14.5303C12.8898 14.671 12.699 14.75 12.5001 14.75H10.7501V16.5C10.7501 16.6989 10.6711 16.8897 10.5304 17.0303C10.3898 17.171 10.199 17.25 10.0001 17.25C9.80116 17.25 9.6104 17.171 9.46974 17.0303C9.32909 16.8897 9.25007 16.6989 9.25007 16.5V14.75H7.50007C7.30116 14.75 7.1104 14.671 6.96974 14.5303C6.82909 14.3897 6.75007 14.1989 6.75007 14C6.75007 13.8011 6.82909 13.6103 6.96974 13.4697C7.1104 13.329 7.30116 13.25 7.50007 13.25H9.25007V11.5C9.25007 11.3011 9.32909 11.1103 9.46974 10.9697C9.6104 10.829 9.80116 10.75 10.0001 10.75C10.199 10.75 10.3898 10.829 10.5304 10.9697C10.6711 11.1103 10.7501 11.3011 10.7501 11.5V13.25H12.5001C12.699 13.25 12.8898 13.329 13.0304 13.4697C13.1711 13.6103 13.2501 13.8011 13.2501 14Z" fill="white"/>
</svg>
