<svg width="252" height="256" viewBox="0 0 252 256" fill="none" xmlns="http://www.w3.org/2000/svg">
<path fill-rule="evenodd" clip-rule="evenodd" d="M161.155 24.7299L149.098 15.1435C160.55 16.9495 176.757 15.7981 189.112 13.6074C180.518 22.5166 170.721 35.1164 166.058 45.4495L164.154 28.9027C56.8058 96.4004 81.7068 250.095 82.0066 251.244C82.0954 251.568 82.1103 251.912 82.0503 252.255C81.9904 252.599 81.8568 252.934 81.6574 253.243C81.4581 253.552 81.1969 253.827 80.8892 254.053C80.5814 254.278 80.2333 254.45 79.8652 254.558C79.4977 254.669 79.1169 254.714 78.7447 254.692C78.3725 254.669 78.0162 254.579 77.6963 254.427C77.3763 254.274 77.099 254.062 76.8803 253.803C76.6615 253.544 76.5057 253.243 76.4217 252.917C76.1105 251.735 50.2334 94.5441 161.155 24.7299Z" fill="url(#paint0_linear_10_2322)"/>
<defs>
<linearGradient id="paint0_linear_10_2322" x1="186.098" y1="2.32816" x2="88.1496" y2="258.736" gradientUnits="userSpaceOnUse">
<stop stop-color="white"/>
<stop offset="1" stop-color="white" stop-opacity="0.06"/>
</linearGradient>
</defs>
</svg>
