<svg width="33" height="32" viewBox="0 0 33 32" fill="none" xmlns="http://www.w3.org/2000/svg">
<path d="M26.2479 15.5532C25.9148 15.4228 25.5527 15.2973 25.1036 15.1476C25.0505 15.1283 24.9829 15.0414 24.9829 14.9883V10.3483C24.9877 5.77581 21.3134 2.01453 16.7458 2.00004C12.1781 1.98556 8.45548 5.69856 8.45548 10.2662V10.3531C8.45548 11.0146 9.00591 11.536 9.6674 11.5022L10.2082 11.4733C10.8214 11.4395 11.2994 10.9373 11.2994 10.3241C11.2994 7.33054 13.6991 4.85842 16.6926 4.83911C19.6959 4.8198 22.1487 7.26294 22.1487 10.2613V14.3365C20.3718 13.955 18.5467 13.7619 16.7264 13.7619C15.0317 13.7619 13.3321 13.9309 11.6663 14.264C11.5456 14.2882 11.4249 14.3123 11.3042 14.3413V14.3316C10.0392 14.602 7.59603 15.4132 7.5043 15.4422H7.49947C7.39324 15.4808 7.29668 15.5194 7.20011 15.558C6.79936 15.7077 6.5 16.1471 6.5 16.5768V27.4213C6.5 27.8462 6.79936 28.2856 7.19045 28.4449C10.2371 29.652 13.4432 30.2652 16.7216 30.2652C20.0001 30.2652 23.2061 29.652 26.2528 28.4449C26.6487 28.2904 26.9432 27.851 26.9432 27.4213V16.5768C26.9432 16.1471 26.6439 15.7077 26.2479 15.5532ZM17.8466 21.7866V25.5093C17.8466 26.1466 17.3203 26.6536 16.683 26.6343C16.0746 26.615 15.5966 26.0935 15.5966 25.4851V21.7914C14.9351 21.4003 14.4716 20.7099 14.4716 19.8842C14.4716 18.6385 15.4807 17.6342 16.7216 17.6342C17.9625 17.6342 18.9716 18.6434 18.9716 19.8842C18.9716 20.7051 18.5081 21.3955 17.8466 21.7866Z" fill="#222222"/>
</svg>
