<svg width="70" height="70" viewBox="0 0 70 70" fill="none" xmlns="http://www.w3.org/2000/svg">
<path d="M48.125 28.4375C47.5448 28.4375 46.9884 28.207 46.5782 27.7968C46.168 27.3866 45.9375 26.8302 45.9375 26.25V21.875C45.9375 18.9742 44.7852 16.1922 42.734 14.141C40.6828 12.0898 37.9008 10.9375 35 10.9375C32.0992 10.9375 29.3172 12.0898 27.266 14.141C25.2148 16.1922 24.0625 18.9742 24.0625 21.875V26.25C24.0625 26.8302 23.832 27.3866 23.4218 27.7968C23.0116 28.207 22.4552 28.4375 21.875 28.4375C21.2948 28.4375 20.7384 28.207 20.3282 27.7968C19.918 27.3866 19.6875 26.8302 19.6875 26.25V21.875C19.6875 17.8139 21.3008 13.9191 24.1724 11.0474C27.0441 8.17578 30.9389 6.5625 35 6.5625C39.0611 6.5625 42.9559 8.17578 45.8276 11.0474C48.6992 13.9191 50.3125 17.8139 50.3125 21.875V26.25C50.3125 26.8302 50.082 27.3866 49.6718 27.7968C49.2616 28.207 48.7052 28.4375 48.125 28.4375Z" fill="#222222"/>
<path d="M50.3125 26.25H19.6875C16.0631 26.25 13.125 29.1881 13.125 32.8125V56.875C13.125 60.4994 16.0631 63.4375 19.6875 63.4375H50.3125C53.9369 63.4375 56.875 60.4994 56.875 56.875V32.8125C56.875 29.1881 53.9369 26.25 50.3125 26.25Z" fill="#6C48DD"/>
<path d="M41.5624 41.5625C41.5675 40.3582 41.2412 39.1757 40.619 38.1446C39.9969 37.1134 39.1031 36.2733 38.0353 35.7163C36.9676 35.1593 35.7672 34.9068 34.5655 34.9866C33.3639 35.0663 32.2073 35.4752 31.2225 36.1684C30.2378 36.8616 29.4627 37.8124 28.9823 38.9167C28.5019 40.0211 28.3346 41.2363 28.4988 42.4293C28.663 43.6224 29.1523 44.7472 29.9131 45.6807C30.674 46.6143 31.677 47.3204 32.8124 47.7218V52.5C32.8124 53.0802 33.0429 53.6366 33.4531 54.0468C33.8634 54.457 34.4198 54.6875 34.9999 54.6875C35.5801 54.6875 36.1365 54.457 36.5467 54.0468C36.957 53.6366 37.1874 53.0802 37.1874 52.5V47.7218C38.4633 47.2724 39.5688 46.4391 40.3522 45.3363C41.1355 44.2335 41.5583 42.9152 41.5624 41.5625Z" fill="#222222"/>
</svg>
