<svg width="24" height="24" viewBox="0 0 24 24" fill="none" xmlns="http://www.w3.org/2000/svg">
<g clip-path="url(#clip0_10_2350)">
<path d="M19.8 10.2C19.2 9.6 18.3 9.2 17.5 9.1C17.3 9.1 17.2 9.1 17 9.1H7C6.9 9 6.7 9 6.5 9C5.6 9.1 4.8 9.5 4.2 10.2C3.4 10.9 3 11.9 3 13V19C3 20.1 3.4 21.1 4.2 21.8C5 22.5 5.9 23 7 23H17C18.1 23 19.1 22.6 19.8 21.8C20.5 21 21 20.1 21 19V13C21 11.9 20.6 10.9 19.8 10.2ZM19 19C19 19.5 18.8 20 18.4 20.4C18 20.8 17.5 21 17 21H7C6.5 21 6 20.8 5.6 20.4C5.2 20 5 19.5 5 19V13C5 12.5 5.2 12 5.6 11.6C6 11.2 6.5 11 7 11H17C17.5 11 18 11.2 18.4 11.6C18.8 12 19 12.5 19 13V19Z" fill="#222222"/>
<path d="M15.9 2.6C14.9 1.6 13.5 1 12 1C10.5 1 9.1 1.6 8.1 2.6C7.3 3.5 6.7 4.6 6.6 5.8H8.6C8.7 5.1 9 4.5 9.5 4C10.2 3.4 11.1 3 12 3C12.9 3 13.8 3.4 14.5 4C15.2 4.7 15.5 5.5 15.5 6.5V9H7C6.9 9 6.7 9 6.5 9V10C6.5 10.1 6.5 10.3 6.6 10.4C6.6 10.5 6.7 10.6 6.8 10.7C6.9 10.8 7 10.9 7.1 10.9C7.2 11 7.4 11 7.5 11H16.5C16.6 11 16.8 11 16.9 10.9C17 10.8 17.1 10.8 17.2 10.7C17.3 10.6 17.4 10.5 17.4 10.4C17.4 10.3 17.5 10.1 17.5 10V6.5C17.5 5 16.9 3.6 15.9 2.6Z" fill="#222222"/>
<path d="M12 16.5C12.8 16.5 13.5 15.8 13.5 15C13.5 14.2 12.8 13.5 12 13.5C11.2 13.5 10.5 14.2 10.5 15C10.5 15.8 11.2 16.5 12 16.5Z" fill="#222222"/>
</g>
<defs>
<clipPath id="clip0_10_2350">
<rect width="18" height="22" fill="white" transform="translate(3 1)"/>
</clipPath>
</defs>
</svg>
