<svg width="24" height="24" viewBox="0 0 24 24" fill="none" xmlns="http://www.w3.org/2000/svg">
<path d="M12 6.125C12.9665 6.125 13.75 5.3415 13.75 4.375C13.75 3.4085 12.9665 2.625 12 2.625C11.0335 2.625 10.25 3.4085 10.25 4.375C10.25 5.3415 11.0335 6.125 12 6.125Z" fill="#FFD600"/>
<path d="M21 9.125C21.9665 9.125 22.75 8.3415 22.75 7.375C22.75 6.4085 21.9665 5.625 21 5.625C20.0335 5.625 19.25 6.4085 19.25 7.375C19.25 8.3415 20.0335 9.125 21 9.125Z" fill="#FFD600"/>
<path d="M3 9.125C3.9665 9.125 4.75 8.3415 4.75 7.375C4.75 6.4085 3.9665 5.625 3 5.625C2.0335 5.625 1.25 6.4085 1.25 7.375C1.25 8.3415 2.0335 9.125 3 9.125Z" fill="#FFD600"/>
<path fill-rule="evenodd" clip-rule="evenodd" d="M21.235 8.522C21.299 8.204 21.151 7.882 20.87 7.722C20.588 7.563 20.235 7.602 19.995 7.82C19.995 7.82 18.949 8.771 17.769 9.844C17.217 10.346 16.452 10.541 15.727 10.366C15.002 10.191 14.411 9.668 14.149 8.969L12.702 5.112C12.592 4.819 12.313 4.625 12 4.625C11.687 4.625 11.408 4.819 11.298 5.112L9.85102 8.969C9.58902 9.668 8.99802 10.191 8.27302 10.366C7.54802 10.541 6.78302 10.346 6.23102 9.844C5.05102 8.771 4.00502 7.82 4.00502 7.82C3.76502 7.602 3.41202 7.563 3.13002 7.722C2.84902 7.882 2.70102 8.204 2.76502 8.522C2.76502 8.522 3.87802 14.087 4.44302 16.914C4.70002 18.2 5.82902 19.125 7.14002 19.125H16.86C18.171 19.125 19.3 18.2 19.557 16.914C20.122 14.087 21.235 8.522 21.235 8.522Z" fill="#FFD600"/>
<path fill-rule="evenodd" clip-rule="evenodd" d="M18 20.625H6C5.586 20.625 5.25 20.961 5.25 21.375C5.25 21.789 5.586 22.125 6 22.125H18C18.414 22.125 18.75 21.789 18.75 21.375C18.75 20.961 18.414 20.625 18 20.625Z" fill="#FFD600"/>
</svg>
