<svg width="24" height="24" viewBox="0 0 24 24" fill="none" xmlns="http://www.w3.org/2000/svg">
<path d="M12.2795 15.9133C11.8894 16.2243 11.4055 16.3939 10.9066 16.3944C10.6173 16.3954 10.3307 16.3389 10.0635 16.2281C9.79628 16.1173 9.55376 15.9544 9.35005 15.749L6.05219 12.4512C5.84705 12.2472 5.68418 12.0047 5.57291 11.7377C5.46163 11.4706 5.40414 11.1842 5.40374 10.8949C5.40333 10.6056 5.46001 10.3191 5.57053 10.0517C5.68105 9.78439 5.84324 9.54147 6.0478 9.3369C6.25236 9.13233 6.49528 8.97013 6.76264 8.8596C7.02999 8.74907 7.31653 8.69238 7.60583 8.69278C7.89513 8.69318 8.18151 8.75066 8.44856 8.86193C8.71561 8.97319 8.95807 9.13606 9.16207 9.34119L11.0693 11.2484L18.3123 5.45335C16.6936 3.61845 14.4562 2.44358 12.0268 2.1528C9.59734 1.86203 7.14586 2.47571 5.13994 3.8768C3.13402 5.27788 1.71402 7.36832 1.15079 9.7494C0.587558 12.1305 0.92051 14.6356 2.08614 16.7869C3.25177 18.9382 5.1685 20.5851 7.47076 21.4136C9.77301 22.2421 12.2997 22.1941 14.5688 21.2789C16.838 20.3636 18.6908 18.6451 19.774 16.4511C20.8571 14.2571 21.0948 11.7412 20.4416 9.38321L12.2795 15.9133Z" fill="#3B1D97"/>
<path d="M10.9067 15.2948C10.7621 15.295 10.619 15.2666 10.4855 15.2114C10.3519 15.1561 10.2307 15.0749 10.1286 14.9726L6.82967 11.6736C6.62613 11.4669 6.51255 11.1881 6.51368 10.8979C6.51481 10.6078 6.63057 10.3299 6.83573 10.1247C7.04088 9.91958 7.3188 9.80383 7.60893 9.8027C7.89905 9.80157 8.17787 9.91516 8.38461 10.1187L10.9877 12.7218L21.2159 4.53883C21.4438 4.35769 21.7343 4.27432 22.0236 4.307C22.3129 4.33968 22.5774 4.48574 22.7592 4.71317C22.941 4.94059 23.0252 5.23082 22.9934 5.52022C22.9615 5.80963 22.8162 6.07459 22.5893 6.25704L11.5928 15.0543C11.3981 15.2101 11.1561 15.2949 10.9067 15.2948Z" fill="white"/>
</svg>
