<svg width="21" height="18" viewBox="0 0 21 18" fill="none" xmlns="http://www.w3.org/2000/svg">
<path fill-rule="evenodd" clip-rule="evenodd" d="M7.10818 0C6.59936 -1.20003e-06 6.09891 0.129412 5.65387 0.37607C5.20884 0.622728 4.83385 0.978524 4.56418 1.41L0.48418 7.94C0.285515 8.25786 0.180176 8.62516 0.180176 9C0.180176 9.37484 0.285515 9.74214 0.48418 10.06L4.56418 16.59C4.83385 17.0215 5.20884 17.3773 5.65387 17.6239C6.09891 17.8706 6.59936 18 7.10818 18H18.0002C18.7958 18 19.5589 17.6839 20.1215 17.1213C20.6841 16.5587 21.0002 15.7956 21.0002 15V3C21.0002 2.20435 20.6841 1.44129 20.1215 0.87868C19.5589 0.316071 18.7958 0 18.0002 0H7.10818ZM15.5352 12.536C15.3477 12.7235 15.0933 12.8288 14.8282 12.8288C14.563 12.8288 14.3087 12.7235 14.1212 12.536L12.0002 10.414L9.87918 12.536C9.69154 12.7236 9.43704 12.8291 9.17168 12.8291C8.90632 12.8291 8.65182 12.7236 8.46418 12.536C8.27654 12.3484 8.17112 12.0939 8.17112 11.8285C8.17112 11.5631 8.27654 11.3086 8.46418 11.121L10.5862 9L8.46418 6.879C8.27654 6.69136 8.17112 6.43686 8.17112 6.1715C8.17112 5.90614 8.27654 5.65164 8.46418 5.464C8.65182 5.27636 8.90632 5.17094 9.17168 5.17094C9.43704 5.17094 9.69154 5.27636 9.87918 5.464L12.0002 7.586L14.1212 5.464C14.2141 5.37116 14.3244 5.29752 14.4457 5.2473C14.5671 5.19708 14.6972 5.17125 14.8285 5.1713C14.9599 5.17134 15.0899 5.19726 15.2113 5.24757C15.3326 5.29788 15.4428 5.37159 15.5357 5.4645C15.6285 5.55741 15.7022 5.6677 15.7524 5.78907C15.8026 5.91043 15.8284 6.04051 15.8284 6.17185C15.8283 6.3032 15.8024 6.43326 15.7521 6.55459C15.7018 6.67592 15.6281 6.78616 15.5352 6.879L13.4152 9L15.5352 11.121C15.6282 11.2139 15.7019 11.3242 15.7522 11.4456C15.8026 11.567 15.8285 11.6971 15.8285 11.8285C15.8285 11.9599 15.8026 12.09 15.7522 12.2114C15.7019 12.3328 15.6282 12.4431 15.5352 12.536Z" fill="white"/>
</svg>
